<svg width="132" height="49" viewBox="0 0 132 49" fill="none" xmlns="http://www.w3.org/2000/svg">
<path d="M37.5 19.5V47.5H1.5V19.5C1.5 9.55887 9.55888 1.5 19.5 1.5C29.4411 1.5 37.5 9.55887 37.5 19.5Z" stroke="#F2CECF" stroke-width="3"/>
<mask id="path-2-inside-1_1489_2" fill="white">
<rect x="19" y="19" width="20" height="12" rx="1.5"/>
</mask>
<rect x="19" y="19" width="20" height="12" rx="1.5" stroke="#F2CECF" stroke-width="6" mask="url(#path-2-inside-1_1489_2)"/>
<mask id="path-3-inside-2_1489_2" fill="white">
<rect x="11" y="28" width="28" height="12" rx="1.5"/>
</mask>
<rect x="11" y="28" width="28" height="12" rx="1.5" stroke="#F2CECF" stroke-width="6" mask="url(#path-3-inside-2_1489_2)"/>
<mask id="path-4-inside-3_1489_2" fill="white">
<rect y="37" width="39" height="12" rx="1.5"/>
</mask>
<rect y="37" width="39" height="12" rx="1.5" stroke="#F2CECF" stroke-width="6" mask="url(#path-4-inside-3_1489_2)"/>
<path d="M54.6666 40V18.7H58.5066V40H54.6666ZM64.9643 23.08C64.3243 23.08 63.7643 22.85 63.2843 22.39C62.8243 21.93 62.5943 21.39 62.5943 20.77C62.5943 20.11 62.8243 19.56 63.2843 19.12C63.7643 18.66 64.3243 18.43 64.9643 18.43C65.6043 18.43 66.1443 18.66 66.5843 19.12C67.0443 19.56 67.2743 20.11 67.2743 20.77C67.2743 21.39 67.0443 21.93 66.5843 22.39C66.1243 22.85 65.5843 23.08 64.9643 23.08ZM63.0443 40V25H66.8843V40H63.0443ZM71.4221 40V25H74.9321L75.2621 26.77H75.5021C76.5021 25.39 77.8721 24.7 79.6121 24.7C81.4921 24.7 82.8021 25.49 83.5421 27.07H83.7821C84.8821 25.49 86.4421 24.7 88.4621 24.7C90.0421 24.7 91.2821 25.17 92.1821 26.11C93.0821 27.05 93.5321 28.41 93.5321 30.19V40H89.6921V30.91C89.6921 29.99 89.4521 29.28 88.9721 28.78C88.4921 28.28 87.8721 28.03 87.1121 28.03C86.2921 28.03 85.6321 28.31 85.1321 28.87C84.6321 29.43 84.3821 30.18 84.3821 31.12V40H80.5421V31.03C80.5421 30.07 80.3021 29.33 79.8221 28.81C79.3621 28.29 78.7521 28.03 77.9921 28.03C77.2521 28.03 76.6121 28.3 76.0721 28.84C75.5321 29.36 75.2621 30.11 75.2621 31.09V40H71.4221ZM105.371 24.7C107.391 24.7 109.071 25.4 110.411 26.8C111.751 28.2 112.421 30.09 112.421 32.47C112.421 34.81 111.751 36.7 110.411 38.14C109.091 39.58 107.411 40.3 105.371 40.3C103.431 40.3 101.941 39.61 100.901 38.23H100.631L100.301 40H97.1811V18.7H101.021V26.41C102.041 25.27 103.491 24.7 105.371 24.7ZM102.041 35.74C102.721 36.56 103.631 36.97 104.771 36.97C105.911 36.97 106.831 36.56 107.531 35.74C108.231 34.9 108.581 33.81 108.581 32.47C108.581 31.15 108.231 30.08 107.531 29.26C106.831 28.44 105.911 28.03 104.771 28.03C103.631 28.03 102.721 28.44 102.041 29.26C101.361 30.08 101.021 31.15 101.021 32.47C101.021 33.83 101.361 34.92 102.041 35.74ZM122.794 40.3C120.534 40.3 118.644 39.57 117.124 38.11C115.624 36.63 114.874 34.75 114.874 32.47C114.874 30.19 115.624 28.33 117.124 26.89C118.624 25.43 120.514 24.7 122.794 24.7C125.074 24.7 126.964 25.43 128.464 26.89C129.964 28.33 130.714 30.19 130.714 32.47C130.714 34.77 129.964 36.65 128.464 38.11C126.964 39.57 125.074 40.3 122.794 40.3ZM122.794 36.97C124.014 36.97 125.004 36.54 125.764 35.68C126.524 34.82 126.904 33.75 126.904 32.47C126.904 31.21 126.524 30.16 125.764 29.32C125.004 28.46 124.014 28.03 122.794 28.03C121.574 28.03 120.584 28.46 119.824 29.32C119.084 30.16 118.714 31.21 118.714 32.47C118.714 33.75 119.094 34.82 119.854 35.68C120.614 36.54 121.594 36.97 122.794 36.97Z" fill="#F2CECF"/>
</svg>
